<?xml version="1.0" encoding="iso-8859-1"?>
<!-- Generator: Adobe Illustrator 19.0.0, SVG Export Plug-In . SVG Version: 6.00 Build 0)  -->
<svg xmlns="http://www.w3.org/2000/svg" xmlns:xlink="http://www.w3.org/1999/xlink" version="1.1" id="Layer_1" x="0px" y="0px" viewBox="0 0 512 512" style="enable-background:new 0 0 512 512;" xml:space="preserve" width="512" height="512">
<g>
	<path d="M20,80c0-23.738,9.417-46.065,26.515-62.867c3.939-3.871,3.995-10.202,0.124-14.142   c-3.871-3.939-10.203-3.994-14.142-0.124C11.541,23.461,0,50.854,0,80s11.541,56.539,32.498,77.133   c1.947,1.913,4.478,2.867,7.008,2.867c2.588,0,5.176-0.999,7.133-2.991c3.871-3.939,3.815-10.271-0.124-14.142   C29.417,126.066,20,103.738,20,80z"/>
	<path d="M75.132,30.991c-3.87-3.938-10.201-3.994-14.142-0.124C47.646,43.982,40.296,61.431,40.296,80s7.35,36.019,20.694,49.133   C62.938,131.046,65.469,132,68,132c2.588,0,5.176-0.999,7.133-2.991c3.871-3.938,3.816-10.271-0.123-14.142   C65.522,105.544,60.296,93.161,60.296,80s5.225-25.544,14.713-34.867C78.948,41.262,79.003,34.93,75.132,30.991z"/>
	<path d="M479.503,2.867c-3.939-3.87-10.271-3.816-14.142,0.124c-3.871,3.939-3.815,10.271,0.124,14.142   C482.584,33.935,492,56.262,492,80s-9.417,46.065-26.515,62.867c-3.939,3.871-3.995,10.202-0.124,14.142   c1.958,1.992,4.545,2.991,7.133,2.991c2.53,0,5.062-0.954,7.008-2.867C500.459,136.539,512,109.147,512,80   S500.459,23.461,479.503,2.867z"/>
	<path d="M451.009,30.867c-3.939-3.87-10.271-3.815-14.142,0.124c-3.871,3.938-3.816,10.271,0.123,14.142   c9.488,9.323,14.713,21.706,14.713,34.867s-5.225,25.544-14.713,34.867c-3.939,3.871-3.994,10.203-0.123,14.142   c1.958,1.992,4.544,2.991,7.133,2.991c2.53,0,5.062-0.954,7.009-2.867c13.345-13.114,20.694-30.563,20.694-49.133   S464.354,43.982,451.009,30.867z"/>
	<path d="M401.175,50.005h-10v-36c0-5.522-4.477-10-10-10h-20c-16.542,0-30,13.458-30,30V70h-26.152c0,0-4.044-60.665-4.047-60.697   c-0.17-2.445-1.272-4.809-3.039-6.508c-1.862-1.793-4.388-2.786-6.966-2.794c0,0-69.885,0-69.942,0   c-5.179,0-9.659,4.173-10.007,9.349L206.978,70h-26.152V33.995c0-16.542-13.458-30-30-30h-20c-5.523,0-10,4.478-10,10v36h-10   c-16.542,0-30,13.458-30,30s13.458,30,30,30h10v36c0,5.522,4.477,10,10,10h20c16.542,0,30-13.458,30-30V90h24.819l-4.609,69.142   L166.971,492H160c-5.523,0-10,4.478-10,10s4.477,10,10,10h60c5.523,0,10-4.478,10-10s-4.477-10-10-10h-7.807L256,465.793   L299.806,492H292c-5.523,0-10,4.478-10,10s4.477,10,10,10h60c5.523,0,10-4.478,10-10s-4.477-10-10-10h-6.971L310.967,159.17   L306.356,90h24.819v36.005c0,16.542,13.458,30,30,30h20c5.523,0,10-4.478,10-10v-36h10c16.542,0,30-13.458,30-30   S417.717,50.005,401.175,50.005z M110.825,89.995c-5.514,0-10-4.486-10-10s4.486-10,10-10h10v20H110.825z M160.825,125.995   c0,5.514-4.486,10-10,10h-10v-112h10c5.514,0,10,4.486,10,10V125.995z M288.133,226.158L256,242.296l-32.133-16.138L256,203.681   L288.133,226.158z M273.446,191.478l19.338-13.527l2.982,29.141L273.446,191.478z M216.232,207.091l2.982-29.141l19.338,13.527   L216.232,207.091z M212.571,242.866l21.147,10.62l-23.438,11.771L212.571,242.866z M256,264.677l34.911,17.533L256,299.728   l-34.911-17.518L256,264.677z M278.281,253.486l21.147-10.62l2.292,22.392L278.281,253.486z M256,179.274l-28.402-19.867   l28.12-22.826l28.604,22.883L256,179.274z M271.608,123.681l16.078-13.052l1.825,27.374L271.608,123.681z M255.626,110.895   L230.59,90.865L256.26,62.8l25.151,27.163L255.626,110.895z M239.735,123.794l-17.231,13.988l1.758-26.367L239.735,123.794z    M206.98,297.507l26.723,13.408l-29.616,14.861L206.98,297.507z M256,322.104l41.76,20.954L256,364.628l-41.76-21.57L256,322.104z    M278.297,310.915l26.722-13.408l2.893,28.269L278.297,310.915z M282.58,34.024l1.994,29.918L269.805,47.99L282.58,34.024z    M268.302,20l-12.132,13.265L243.888,20H268.302z M229.434,33.827l13.191,14.246L227.372,64.75L229.434,33.827z M200.729,358.589   l33.481,17.294l-37.218,19.224L200.729,358.589z M187.978,483.181l5.602-54.731l42.942,25.69L187.978,483.181z M206.349,412.783   L256,387.138l49.651,25.646L256,442.487L206.349,412.783z M324.022,483.181l-48.543-29.041l42.942-25.69L324.022,483.181z    M315.008,395.107l-37.218-19.224l33.48-17.294L315.008,395.107z M371.175,136.005h-10c-5.514,0-10-4.486-10-10v-92   c0-5.514,4.486-10,10-10h10V136.005z M401.175,90.005h-10v-20h10c5.514,0,10,4.486,10,10S406.689,90.005,401.175,90.005z"/>
</g>















</svg>
