<svg id="Layer_1" enable-background="new 0 0 512 512" height="512" viewBox="0 0 512 512" width="512" xmlns="http://www.w3.org/2000/svg"><g><path d="m400.6 243.133h79.267v-75.5c0-5.063-2.554-9.783-6.79-12.554s-9.585-3.217-14.223-1.188l-107.521 47.04v-33.298c0-5.063-2.554-9.783-6.79-12.554-4.237-2.771-9.587-3.216-14.224-1.188l-76.562 33.504 15.481 144.569c11.908-29.823 51.582-88.831 131.362-88.831z"/><path d="m218.546 140.334h-182.159l-36.302 339.002c-.454 4.231.913 8.457 3.758 11.623 2.845 3.165 6.9 4.974 11.157 4.974h224.933c4.256 0 8.312-1.809 11.157-4.974 2.845-3.166 4.211-7.392 3.757-11.623z"/><path d="m206.647 29.463c-.819-7.619-7.25-13.396-14.914-13.396h-128.533c-7.664 0-14.095 5.777-14.914 13.396l-8.686 80.87h175.734z"/><path d="m497 273.133h-96.4c-61.268 0-111.399 49.486-111.399 111.4v90.188l100.793-100.793c5.86-5.86 15.356-5.856 21.213 0 5.858 5.857 5.858 15.355 0 21.213l-100.793 100.792h90.186c61.276 0 111.4-49.492 111.4-111.399v-96.4c0-8.285-6.716-15.001-15-15.001z"/></g></svg>