<svg id="Capa_1" enable-background="new 0 0 512 512" height="512" viewBox="0 0 512 512" width="512" xmlns="http://www.w3.org/2000/svg"><g><path d="m475.63 239.75c0-4.142-3.357-7.5-7.5-7.5s-7.5 3.358-7.5 7.5v224.925h-5.406c-3.144-9.383-12.018-16.163-22.445-16.163s-19.301 6.779-22.444 16.163h-5.411v-421.82c0-15.359 12.496-27.855 27.855-27.855h.001s.001 0 .001 0c15.356 0 27.85 12.498 27.85 27.86v161.89c0 4.142 3.357 7.5 7.5 7.5s7.5-3.358 7.5-7.5v-161.89c-.001-23.633-19.224-42.86-42.851-42.86h-.001s-.001 0-.001 0h-70.711c-14.664 0-27.626 7.406-35.356 18.671-7.728-11.262-20.686-18.667-35.346-18.671-.002 0-.003 0-.005 0h-70.72c-14.661 0-27.621 7.407-35.35 18.672-7.73-11.265-20.693-18.672-35.357-18.672h-.001s-.001 0-.001 0h-70.711c-23.627 0-42.85 19.227-42.85 42.86l-.004 461.64c0 4.142 3.357 7.5 7.5 7.5h70.711c4.143 0 7.5-3.358 7.5-7.5v-2.828c7.496 6.429 17.223 10.326 27.85 10.328h.003 70.71c14.665 0 27.628-7.407 35.359-18.673 7.729 11.266 20.692 18.673 35.356 18.673h70.712c10.629 0 20.358-3.898 27.855-10.328v2.828c0 4.142 3.357 7.5 7.5 7.5h70.711c4.143 0 7.5-3.358 7.5-7.5zm-368.553 257.25h-55.711v-17.325h11.692c4.143 0 7.5-3.358 7.5-7.5 0-4.776 3.887-8.663 8.663-8.663s8.662 3.886 8.662 8.663c0 4.142 3.357 7.5 7.5 7.5h11.693v17.325zm42.854 0c-15.32-.001-27.788-12.434-27.851-27.74v-127.65c0-4.142-3.357-7.5-7.5-7.5s-7.5 3.358-7.5 7.5v123.065h-5.414c-3.144-9.383-12.017-16.163-22.444-16.163s-19.302 6.779-22.445 16.163h-5.407v-39.549h12.699c4.143 0 7.5-3.358 7.5-7.5s-3.357-7.5-7.5-7.5h-12.699v-17.325h12.699c4.143 0 7.5-3.358 7.5-7.5s-3.357-7.5-7.5-7.5h-12.699v-17.325h12.699c4.143 0 7.5-3.358 7.5-7.5s-3.357-7.5-7.5-7.5h-12.699v-17.326h12.699c4.143 0 7.5-3.358 7.5-7.5s-3.357-7.5-7.5-7.5h-12.699v-17.325h20.78c4.143 0 7.5-3.358 7.5-7.5s-3.357-7.5-7.5-7.5h-20.78v-17.325h12.699c4.143 0 7.5-3.358 7.5-7.5s-3.357-7.5-7.5-7.5h-12.699v-17.325h12.699c4.143 0 7.5-3.358 7.5-7.5s-3.357-7.5-7.5-7.5h-12.699v-17.325h12.699c4.143 0 7.5-3.358 7.5-7.5s-3.357-7.5-7.5-7.5h-12.699v-17.325h12.699c4.143 0 7.5-3.358 7.5-7.5s-3.357-7.5-7.5-7.5h-12.699v-17.325h20.78c4.143 0 7.5-3.358 7.5-7.5s-3.357-7.5-7.5-7.5h-20.78v-17.325h12.699c4.143 0 7.5-3.358 7.5-7.5s-3.357-7.5-7.5-7.5h-12.699v-17.326h12.699c4.143 0 7.5-3.358 7.5-7.5s-3.357-7.5-7.5-7.5h-12.699v-11.689c0-15.362 12.493-27.86 27.85-27.86h38.173c-6.426 7.498-10.312 17.233-10.312 27.86v263.75c0 4.142 3.357 7.5 7.5 7.5s7.5-3.358 7.5-7.5v-263.75c0-15.362 12.493-27.86 27.85-27.86h.001s.001 0 .001 0c15.36 0 27.856 12.496 27.856 27.855 0 .007.001.013.001.019v426.266c0 15.361-12.497 27.859-27.859 27.86zm169.28-27.855c0 15.359-12.496 27.855-27.855 27.855s-27.856-12.496-27.856-27.855v-.001c0-.001 0-331.043 0-331.043 0-4.142-3.357-7.5-7.5-7.5s-7.5 3.358-7.5 7.5v331.04c0 15.362-12.498 27.86-27.86 27.86h-38.165c6.428-7.498 10.315-17.233 10.315-27.86v-11.689h18.763c4.143 0 7.5-3.358 7.5-7.5s-3.357-7.5-7.5-7.5h-18.763v-17.325h12.702c4.143 0 7.5-3.358 7.5-7.5s-3.357-7.5-7.5-7.5h-12.702v-17.325h12.702c4.143 0 7.5-3.358 7.5-7.5s-3.357-7.5-7.5-7.5h-12.702v-17.325h12.702c4.143 0 7.5-3.358 7.5-7.5s-3.357-7.5-7.5-7.5h-12.702v-17.327h12.702c4.143 0 7.5-3.358 7.5-7.5s-3.357-7.5-7.5-7.5h-12.702v-17.325h18.763c4.143 0 7.5-3.358 7.5-7.5s-3.357-7.5-7.5-7.5h-18.763v-17.325h12.702c4.143 0 7.5-3.358 7.5-7.5s-3.357-7.5-7.5-7.5h-12.702v-17.325h12.702c4.143 0 7.5-3.358 7.5-7.5s-3.357-7.5-7.5-7.5h-12.702v-17.325h12.702c4.143 0 7.5-3.358 7.5-7.5s-3.357-7.5-7.5-7.5h-12.702v-17.325h12.702c4.143 0 7.5-3.358 7.5-7.5s-3.357-7.5-7.5-7.5h-12.702v-17.325h18.763c4.143 0 7.5-3.358 7.5-7.5s-3.357-7.5-7.5-7.5h-18.763v-17.325h12.702c4.143 0 7.5-3.358 7.5-7.5s-3.357-7.5-7.5-7.5h-12.702v-17.326h12.702c4.143 0 7.5-3.358 7.5-7.5s-3.357-7.5-7.5-7.5h-12.702v-11.689c0-15.362 12.493-27.86 27.85-27.86h38.176c-6.428 7.498-10.315 17.233-10.315 27.86v60.24c0 4.142 3.357 7.5 7.5 7.5s7.5-3.358 7.5-7.5v-60.24c0-15.361 12.497-27.858 27.858-27.86 15.358.001 27.853 12.497 27.853 27.855v426.29zm42.856 27.855h-38.169c6.427-7.497 10.312-17.23 10.312-27.855v-11.693h18.765c4.143 0 7.5-3.358 7.5-7.5s-3.357-7.5-7.5-7.5h-18.765v-17.325h12.704c4.143 0 7.5-3.358 7.5-7.5s-3.357-7.5-7.5-7.5h-12.704v-17.325h12.704c4.143 0 7.5-3.358 7.5-7.5s-3.357-7.5-7.5-7.5h-12.704v-17.325h12.704c4.143 0 7.5-3.358 7.5-7.5s-3.357-7.5-7.5-7.5h-12.704v-17.327h12.704c4.143 0 7.5-3.358 7.5-7.5s-3.357-7.5-7.5-7.5h-12.704v-17.325h18.765c4.143 0 7.5-3.358 7.5-7.5s-3.357-7.5-7.5-7.5h-18.765v-17.325h12.704c4.143 0 7.5-3.358 7.5-7.5s-3.357-7.5-7.5-7.5h-12.704v-17.325h12.704c4.143 0 7.5-3.358 7.5-7.5s-3.357-7.5-7.5-7.5h-12.704v-17.325h12.704c4.143 0 7.5-3.358 7.5-7.5s-3.357-7.5-7.5-7.5h-12.704v-17.325h12.704c4.143 0 7.5-3.358 7.5-7.5s-3.357-7.5-7.5-7.5h-12.704v-17.325h18.765c4.143 0 7.5-3.358 7.5-7.5s-3.357-7.5-7.5-7.5h-18.765v-17.325h12.704c4.143 0 7.5-3.358 7.5-7.5s-3.357-7.5-7.5-7.5h-12.704v-17.326h12.704c4.143 0 7.5-3.358 7.5-7.5s-3.357-7.5-7.5-7.5h-12.704v-11.694c0-15.359 12.496-27.855 27.856-27.855h38.168c-6.427 7.497-10.312 17.23-10.312 27.855v426.289c.001 15.36-12.495 27.856-27.855 27.856zm98.567 0h-55.711v-17.325h11.693c4.143 0 7.5-3.358 7.5-7.5 0-4.776 3.886-8.663 8.662-8.663s8.663 3.886 8.663 8.663c0 4.142 3.357 7.5 7.5 7.5h11.692v17.325z"/></g></svg>